<svg id="레이어_1" data-name="레이어 1" xmlns="http://www.w3.org/2000/svg" viewBox="0 0 640 320"><defs><style>.cls-1{fill:#ff8585;}.cls-2{fill:#e0e3eb;}.cls-3{fill:#f66;}.cls-4{fill:none;stroke:#e0e3eb;stroke-linecap:round;stroke-miterlimit:10;}.cls-5{fill:#bb4e00;}.cls-6{fill:#eceef3;}.cls-7{fill:#ff9d9d;}</style></defs><path class="cls-1" d="M151.33,86c12.49-17.52,35.48-24.84,57-24.5S250.65,68.59,271.49,74A501.44,501.44,0,0,0,450.67,86.7c41.8-4.59,85-14.34,125.06-1.51a53.11,53.11,0,0,1,14,6.42c7,4.85,12.07,12.17,15.8,19.87,10.05,20.76,11.31,46.52-.29,66.46a59.13,59.13,0,0,1-23.51,22.51c-8.89,4.67-18.82,7-28.7,8.77-33.83,6.11-68.4,6.51-102.77,6.67-21.22.1-42.57.11-63.48-3.51-23.15-4-45.33-12.35-68.25-17.52a253.21,253.21,0,0,0-80.82-4.9c-7.22.73-14.68,1.75-21.62-.37s-13.24-8.45-12.61-15.68Z"/><path class="cls-2" d="M208.94,166.46,144,259a5.27,5.27,0,0,1-7.34,1.28L20.19,178.56a5.25,5.25,0,0,1-1.29-7.33L78.49,86.34c3-1,6.46-1.55,9.49-.44,7.53,2.75,11.2,12.27,14.59,18.79,2,3.8,4.43,7.55,8.1,9.77a25.62,25.62,0,0,0,8,2.75c4.07.85,8.31,1.54,12,3.53,4,2.15,6.84,5.71,9.53,9.29,3.78,5,7.74,9.86,14.08,11.49,5.47,1.41,11.4.92,16.63,3.34,6.7,3.12,9.79,10.95,14.84,15.91C192.33,167.15,200.69,165.38,208.94,166.46Z"/><path class="cls-3" d="M208.94,166.46l16.77-23.87a5.26,5.26,0,0,0-1.29-7.34L108,53.5a5.25,5.25,0,0,0-7.33,1.29L78.49,86.34c3-1,6.46-1.55,9.49-.44,7.53,2.75,11.2,12.27,14.59,18.79,2,3.8,4.43,7.55,8.1,9.77a25.62,25.62,0,0,0,8,2.75c4.07.85,8.31,1.54,12,3.53,4,2.15,6.84,5.71,9.53,9.29,3.78,5,7.74,9.86,14.08,11.49,5.47,1.41,11.4.92,16.63,3.34,6.7,3.12,9.79,10.95,14.84,15.91C192.33,167.15,200.69,165.38,208.94,166.46Z"/><path class="cls-4" d="M222.38,133.82c-9.47,13.49-42.3,6.77-73.32-15s-48.51-50.37-39-63.86"/><rect class="cls-5" x="137.12" y="115.82" width="23.87" height="5.97" rx="2.12" transform="translate(95.33 -64.08) rotate(35.07)"/><rect class="cls-6" x="154.07" y="159.14" width="16.71" height="101.47" rx="2.44" transform="translate(150.08 -55.22) rotate(35.07)"/><path class="cls-7" d="M227.16,149l.61,4.23-5.19.74L216,108.41l-3.88.56-.7-4.85,9.07-1.3,2.83,19.6A13.61,13.61,0,0,1,234,115.3a15.6,15.6,0,0,1,8.86,1.1,15.19,15.19,0,0,1,6.5,5.81,24.85,24.85,0,0,1,3.4,9.91q1.2,8.31-2.4,13.78t-11,6.54a15.37,15.37,0,0,1-6.7-.41A14.17,14.17,0,0,1,227.16,149Zm-1.85-12.89q.87,6.1,4.44,9.26a10.35,10.35,0,0,0,8.77,2.42A9.89,9.89,0,0,0,246,143q2.43-4,1.55-10.12c-.64-4.44-2.13-7.8-4.46-10.11a9.66,9.66,0,0,0-8.57-2.73,10,10,0,0,0-7.68,5.07Q224.35,129.42,225.31,136.07Z"/><path class="cls-7" d="M285.05,151.68l4.45-29.77,5.19.77-5.17,34.62-15.85-2.37q-6.51-1-9.55-4.29T262,141l3.39-22.71,5.2.78-3.29,22a11.24,11.24,0,0,0,.09,4.58,4.85,4.85,0,0,0,2.37,2.9,15.94,15.94,0,0,0,5.59,1.65Z"/><path class="cls-7" d="M317.39,156.43a9.88,9.88,0,0,0,6.86-1.07,11.14,11.14,0,0,0,4.76-5.45l5,.94a16.93,16.93,0,0,1-7,8.66,14.62,14.62,0,0,1-10.51,1.73,16.89,16.89,0,0,1-8.32-3.87,15,15,0,0,1-4.55-7.47,22.52,22.52,0,0,1-.19-10.19,23.13,23.13,0,0,1,3.8-9.47,14.93,14.93,0,0,1,6.76-5.32,16.23,16.23,0,0,1,9-.63A15.19,15.19,0,0,1,332.6,130a16.67,16.67,0,0,1,3.26,11.11l-5-.94a10.94,10.94,0,0,0-2.3-7.3,10.52,10.52,0,0,0-6.46-3.74,10,10,0,0,0-8.77,2.14q-3.62,3.09-4.72,9.44t1.33,10.54A10.27,10.27,0,0,0,317.39,156.43Z"/><path class="cls-7" d="M360.72,168.72l1.65,7.73-5.13,1.1-10.62-49.77,5.13-1.09,7.48,35.05,14-23.4,6.16-1.32-10.88,18.43L387.84,171l-6.5,1.39L365.81,160Z"/><path class="cls-7" d="M385.7,140.64A23,23,0,0,1,389,131a14.9,14.9,0,0,1,6.45-5.7,16,16,0,0,1,8.86-1.16,14.13,14.13,0,0,1,12.4,10.59,25.08,25.08,0,0,1,.58,10.34l-.07.56-26.45-3.4A14.91,14.91,0,0,0,393,152a10.45,10.45,0,0,0,7.6,4.51,10.59,10.59,0,0,0,7.34-1.32,9.15,9.15,0,0,0,3.82-5.86l4.86.62q-1.51,6.3-5.81,9.28T400,161.39a17,17,0,0,1-8.53-3.39,15.24,15.24,0,0,1-5-7.2A22.59,22.59,0,0,1,385.7,140.64ZM403.64,129a9.8,9.8,0,0,0-7.58,1.57,10.74,10.74,0,0,0-4.09,6.88L412.38,140a10.37,10.37,0,0,0-2.09-7.39A10.19,10.19,0,0,0,403.64,129Z"/><path class="cls-7" d="M455.12,158.15l5.66-.94.81,4.83L455,163.15q-6.49,1.08-10.37-.86t-5-8.77L436.81,137l-11.25,1.88-.81-4.83L436,132.18l-1.8-10.77,5.18-.86,1.8,10.77,14.71-2.47.81,4.84L442,136.15,444.64,152a11.74,11.74,0,0,0,1.56,4.64,4.41,4.41,0,0,0,3.14,1.85A19.47,19.47,0,0,0,455.12,158.15Z"/><path class="cls-7" d="M495.54,179.22l-31.08-2.9.45-4.88,14.29,1.34,3.57-38.13-11.72,10.23-3.12-3.39,15.44-13.32,5.23.49-4.17,44.6L496,174.35Z"/><path class="cls-7" d="M517.3,130.13a17.58,17.58,0,0,1,8.71,1.1,15.08,15.08,0,0,1,6.38,4.91,15.69,15.69,0,0,1,3,7.88,19.05,19.05,0,0,1-1.08,9.13,15.32,15.32,0,0,1-5,6.71A16.21,16.21,0,0,1,521,163a17.07,17.07,0,0,1-8.6-1.1,14.67,14.67,0,0,1-6.31-5,16,16,0,0,1-2.94-7.92l4.52-.49a10.24,10.24,0,0,0,4.12,7.47,11.89,11.89,0,0,0,8.68,2.12,10.57,10.57,0,0,0,5.58-2.18,10.73,10.73,0,0,0,3.38-4.81,14.37,14.37,0,0,0,.7-6.59,10.33,10.33,0,0,0-3.9-7.32A11.15,11.15,0,0,0,518,135a10.44,10.44,0,0,0-5.93,2.47,9.29,9.29,0,0,0-3.22,5.35l-5.71.62L500,114.34l29.09-3.15.56,5.22L505.39,119l1.79,16.43a14.93,14.93,0,0,1,4.49-3.66A14.36,14.36,0,0,1,517.3,130.13Z"/><path class="cls-7" d="M540,152.05a14.06,14.06,0,0,1,2.6-7.69,14.47,14.47,0,0,1,6.31-4.9,12.24,12.24,0,0,1-4.35-4.67,12,12,0,0,1-1.32-6.34,11.79,11.79,0,0,1,2.26-6.58A13.1,13.1,0,0,1,551,117.6a17.44,17.44,0,0,1,7.84-1.25,17,17,0,0,1,7.6,2.07,13,13,0,0,1,5,4.84,12.66,12.66,0,0,1-.4,12.88,12.45,12.45,0,0,1-4.74,4.21,14.31,14.31,0,0,1,5.78,5.52,14,14,0,0,1,1.8,8,13.64,13.64,0,0,1-2.55,7.55,14.87,14.87,0,0,1-6.24,4.9,19.52,19.52,0,0,1-8.87,1.44,19.77,19.77,0,0,1-8.75-2.33,14.73,14.73,0,0,1-5.71-5.55A13.94,13.94,0,0,1,540,152.05Zm17.5-9.13a12.59,12.59,0,0,0-8.6,2.36,9.47,9.47,0,0,0-.73,14.33,12.61,12.61,0,0,0,8.32,3.23,12.47,12.47,0,0,0,8.56-2.37,9,9,0,0,0,3.62-7,9.11,9.11,0,0,0-2.89-7.37A12.46,12.46,0,0,0,557.51,142.92Zm-9-14.2A7.77,7.77,0,0,0,550.9,135a10.24,10.24,0,0,0,6.87,2.73,10,10,0,0,0,7-2,7.8,7.8,0,0,0,3-6,7.12,7.12,0,0,0-2.4-5.87,10.47,10.47,0,0,0-6.77-2.59,10.74,10.74,0,0,0-7.1,1.88A7.1,7.1,0,0,0,548.49,128.72Z"/><path class="cls-7" d="M587,149.69h25v5.25H578.1v-3.78q6-6.3,10.6-10.78t7.77-7.88a51.75,51.75,0,0,0,5.08-6.19,14.56,14.56,0,0,0,2.38-5.74,10.07,10.07,0,0,0-.46-5.88,8.61,8.61,0,0,0-3.39-4.06,9.27,9.27,0,0,0-5.53-1.33,9.7,9.7,0,0,0-6.9,2.55,8.82,8.82,0,0,0-2.55,6.62h-5.25A14.68,14.68,0,0,1,581.7,111a13.38,13.38,0,0,1,5.18-5.08,17,17,0,0,1,16.31.49,13.86,13.86,0,0,1,5.29,6.27,15.06,15.06,0,0,1,.77,8.82,19.21,19.21,0,0,1-2.45,6.12,48.51,48.51,0,0,1-4.59,6.41c-1.8,2.14-3.66,4.21-5.6,6.19s-3.76,3.79-5.46,5.43S588.06,148.61,587,149.69Z"/><path d="M229.13,147.61l.61,4.23-5.2.75L218,107.07l-3.87.56-.7-4.85,9.07-1.31,2.83,19.61A13.57,13.57,0,0,1,236,114a15.51,15.51,0,0,1,8.86,1.09,15.07,15.07,0,0,1,6.49,5.82,24.71,24.71,0,0,1,3.41,9.9q1.2,8.32-2.4,13.79t-11,6.53a15.41,15.41,0,0,1-6.71-.41A13.93,13.93,0,0,1,229.13,147.61Zm-1.86-12.88q.89,6.09,4.45,9.26a10.33,10.33,0,0,0,8.76,2.41,9.87,9.87,0,0,0,7.49-4.76q2.42-4,1.54-10.12-.94-6.65-4.46-10.11a9.6,9.6,0,0,0-8.56-2.72,10,10,0,0,0-7.68,5.07Q226.32,128.08,227.27,134.73Z"/><path d="M287,150.33l4.44-29.77,5.2.77L291.49,156l-15.85-2.37q-6.51-1-9.56-4.29t-2.1-9.62L267.37,117l5.19.78-3.28,22a11.06,11.06,0,0,0,.09,4.58,4.83,4.83,0,0,0,2.37,2.9,15.94,15.94,0,0,0,5.59,1.65Z"/><path d="M319.36,155.08a9.86,9.86,0,0,0,6.85-1.07,11.06,11.06,0,0,0,4.76-5.44l5,.94a16.87,16.87,0,0,1-7,8.65,14.61,14.61,0,0,1-10.51,1.74,16.87,16.87,0,0,1-8.31-3.88,15,15,0,0,1-4.55-7.47,22.51,22.51,0,0,1-.2-10.19,23.19,23.19,0,0,1,3.81-9.47,15,15,0,0,1,6.76-5.32,16.22,16.22,0,0,1,9-.63,15.19,15.19,0,0,1,9.62,5.68,16.75,16.75,0,0,1,3.26,11.12l-5-.94a10.84,10.84,0,0,0-2.3-7.31,10.44,10.44,0,0,0-6.45-3.73,9.93,9.93,0,0,0-8.77,2.13q-3.61,3.11-4.73,9.44t1.34,10.54A10.25,10.25,0,0,0,319.36,155.08Z"/><path d="M362.69,167.37l1.65,7.74-5.13,1.09-10.63-49.76,5.14-1.1,7.48,35L375.25,137l6.16-1.31L370.52,154.1l19.29,15.57-6.51,1.39L367.78,158.7Z"/><path d="M387.66,139.29a23.18,23.18,0,0,1,3.26-9.67,14.84,14.84,0,0,1,6.45-5.7,16.1,16.1,0,0,1,8.86-1.16,14.16,14.16,0,0,1,12.4,10.59,25.11,25.11,0,0,1,.58,10.35l-.07.55-26.45-3.39a15,15,0,0,0,2.26,9.81,10.4,10.4,0,0,0,7.61,4.51,10.61,10.61,0,0,0,7.34-1.32,9.16,9.16,0,0,0,3.82-5.86l4.86.63q-1.51,6.3-5.82,9.27T401.94,160a16.85,16.85,0,0,1-8.53-3.39,15.08,15.08,0,0,1-5-7.2A22.57,22.57,0,0,1,387.66,139.29Zm17.95-11.67a9.8,9.8,0,0,0-7.58,1.57,10.78,10.78,0,0,0-4.1,6.89l20.42,2.62a10.4,10.4,0,0,0-2.09-7.4A10.25,10.25,0,0,0,405.61,127.62Z"/><path d="M457.08,156.81l5.66-.95.81,4.83-6.62,1.11q-6.49,1.09-10.37-.85t-5-8.78l-2.76-16.5-11.25,1.88-.81-4.83L438,130.84l-1.8-10.77,5.17-.87L443.15,130l14.7-2.46.81,4.83L444,134.8l2.65,15.81a11.91,11.91,0,0,0,1.55,4.64,4.38,4.38,0,0,0,3.15,1.85A19.34,19.34,0,0,0,457.08,156.81Z"/><path d="M497.51,177.88,466.43,175l.45-4.88,14.29,1.34,3.56-38.13L473,143.53l-3.13-3.39,15.45-13.32,5.23.49-4.17,44.61L498,173Z"/><path d="M519.27,128.79a17.58,17.58,0,0,1,8.71,1.09,15,15,0,0,1,6.37,4.91,15.6,15.6,0,0,1,3,7.88,18.93,18.93,0,0,1-1.09,9.13,15.3,15.3,0,0,1-5,6.71,16.31,16.31,0,0,1-8.22,3.11,17.22,17.22,0,0,1-8.61-1.11,14.73,14.73,0,0,1-6.31-4.95,16.1,16.1,0,0,1-2.93-7.92l4.52-.49a10.24,10.24,0,0,0,4.12,7.47,11.88,11.88,0,0,0,8.68,2.13,10.59,10.59,0,0,0,5.57-2.19,10.72,10.72,0,0,0,3.39-4.8,14.53,14.53,0,0,0,.69-6.59,10.29,10.29,0,0,0-3.89-7.33,11.21,11.21,0,0,0-8.26-2.2,10.36,10.36,0,0,0-5.93,2.48,9.19,9.19,0,0,0-3.22,5.34l-5.71.62L501.93,113,531,109.84l.56,5.22-24.22,2.62,1.78,16.43a15.1,15.1,0,0,1,4.5-3.66A14.34,14.34,0,0,1,519.27,128.79Z"/><path d="M542,150.7a14,14,0,0,1,2.6-7.68,14.33,14.33,0,0,1,6.31-4.9,12.38,12.38,0,0,1-4.35-4.67,12,12,0,0,1-1.33-6.34,11.84,11.84,0,0,1,2.26-6.58,13.1,13.1,0,0,1,5.51-4.28,17.51,17.51,0,0,1,7.85-1.25,17,17,0,0,1,7.6,2.07,13.07,13.07,0,0,1,5,4.85,12.61,12.61,0,0,1-.41,12.87A12.42,12.42,0,0,1,568.3,139a14.38,14.38,0,0,1,5.78,5.52,14.16,14.16,0,0,1,1.8,8,13.69,13.69,0,0,1-2.55,7.54,14.76,14.76,0,0,1-6.25,4.9,21.45,21.45,0,0,1-17.61-.89,14.73,14.73,0,0,1-5.71-5.55A13.78,13.78,0,0,1,542,150.7Zm17.5-9.13a12.63,12.63,0,0,0-8.61,2.36,9.47,9.47,0,0,0-.72,14.34,12.58,12.58,0,0,0,8.31,3.22,12.43,12.43,0,0,0,8.57-2.37,9,9,0,0,0,3.61-7,9.09,9.09,0,0,0-2.88-7.37A12.48,12.48,0,0,0,559.48,141.57Zm-9-14.2a7.76,7.76,0,0,0,2.41,6.29,10.24,10.24,0,0,0,6.87,2.73,10,10,0,0,0,7-2,7.85,7.85,0,0,0,3-6,7.13,7.13,0,0,0-2.4-5.87,10.41,10.41,0,0,0-6.77-2.58,10.67,10.67,0,0,0-7.11,1.88A7.07,7.07,0,0,0,550.46,127.37Z"/><path d="M589,148.34h25v5.25H580.06v-3.78q6-6.3,10.61-10.78t7.77-7.88a50.79,50.79,0,0,0,5.07-6.19,14.41,14.41,0,0,0,2.38-5.74,10.09,10.09,0,0,0-.45-5.88,8.63,8.63,0,0,0-3.4-4.06,9.32,9.32,0,0,0-5.53-1.33,9.73,9.73,0,0,0-6.89,2.55,8.84,8.84,0,0,0-2.56,6.62h-5.25a14.71,14.71,0,0,1,1.86-7.49,13.38,13.38,0,0,1,5.18-5.08,17,17,0,0,1,16.31.49,13.89,13.89,0,0,1,5.28,6.27,15,15,0,0,1,.77,8.82,19,19,0,0,1-2.45,6.12,49.34,49.34,0,0,1-4.58,6.41q-2.7,3.22-5.6,6.19t-5.46,5.43C591.42,145.91,590,147.27,589,148.34Z"/><path d="M322.41,247.81H282.86v-3.25H301V238h3.5v6.61h17.9ZM287,240.2l-1.55-2.84,15.3-9.5V223.2h3.5v4.5l15.55,9.66-1.55,2.84-15.6-9.7ZM288.31,259a6.59,6.59,0,0,1,3.75-6c2.5-1.41,6.06-2.1,10.7-2.1s8.2.69,10.7,2.1a6.59,6.59,0,0,1,3.75,6,6.76,6.76,0,0,1-3.75,6.13q-3.75,2.18-10.7,2.17t-10.7-2.17A6.76,6.76,0,0,1,288.31,259Zm3.5,0q0,2.46,2.85,3.75a25.88,25.88,0,0,0,16.2,0q2.85-1.29,2.85-3.75t-2.85-3.62a26.47,26.47,0,0,0-16.2,0Q291.81,256.61,291.81,259Z"/><path d="M362.81,249.45h-3.5v-7.29H348.06a9.4,9.4,0,0,1-3.6,3.34,10.67,10.67,0,0,1-5.15,1.2,11,11,0,0,1-5.53-1.37,9.82,9.82,0,0,1-3.77-3.77,11.17,11.17,0,0,1-1.35-5.56,10.5,10.5,0,0,1,1.35-5.37,9.59,9.59,0,0,1,3.77-3.65,11.39,11.39,0,0,1,5.53-1.32,11,11,0,0,1,5.32,1.25,9.14,9.14,0,0,1,3.63,3.45h11.05V226.2h-3.25V223h6.75Zm-30.65-13.39a7.43,7.43,0,0,0,2,5.32,7.23,7.23,0,0,0,10.15,0,7.52,7.52,0,0,0,2-5.36,7,7,0,0,0-1.93-5.09,6.63,6.63,0,0,0-5-2,6.85,6.85,0,0,0-7.15,7.15ZM335.11,259a6.9,6.9,0,0,1,3.72-6.25q3.74-2.19,10.63-2.2t10.62,2.16a7.13,7.13,0,0,1,0,12.54q-3.72,2.21-10.62,2.21t-10.63-2.21A6.88,6.88,0,0,1,335.11,259Zm3.4,0q0,2.51,2.85,3.86a25,25,0,0,0,16.2,0q2.85-1.35,2.85-3.86c0-1.66-1-2.95-2.85-3.84a24.8,24.8,0,0,0-16.2,0C339.46,256,338.51,257.29,338.51,259ZM349.76,236a14.36,14.36,0,0,1-.08,1.48,8.79,8.79,0,0,1-.27,1.43h9.9v-5.3h-9.8c.06.36.12.75.17,1.14A10.23,10.23,0,0,1,349.76,236Z"/><path d="M375.31,249.2l-2.25-2.34,11.5-11.05v-6.45H374.51v-3.25h23.65v3.25h-10.1v6.75l11.55,10.75-2.25,2.34-11.25-10.39ZM381,266.45V252.2h3.5v11H411v3.25Zm24.25-41.2H402v-3h6.75v32.91h-3.5Z"/><path d="M450,257H418v-3.25h31.9l-.05-27.94h-3.3v-3.25h6.9v44.8H450Zm-28.6-20.09a8.93,8.93,0,0,1,1.47-5,11.14,11.14,0,0,1,3.95-3.63,10.85,10.85,0,0,1,5.38-1.37,11,11,0,0,1,5.32,1.52,11.69,11.69,0,0,1,3.9,3.65,8.51,8.51,0,0,1,1.48,4.83,8.73,8.73,0,0,1-1.48,4.9,11,11,0,0,1-3.9,3.6,10.73,10.73,0,0,1-5.32,1.34,11.11,11.11,0,0,1-9.33-4.94A8.8,8.8,0,0,1,421.36,236.91Zm3.5,0a5.74,5.74,0,0,0,1,3.25,7.38,7.38,0,0,0,2.67,2.4,7.56,7.56,0,0,0,3.63.89,7.39,7.39,0,0,0,3.6-.89,7.22,7.22,0,0,0,2.62-2.4,5.87,5.87,0,0,0,1-3.25,6.15,6.15,0,0,0-1-3.38,7.36,7.36,0,0,0-6.22-3.37,7.53,7.53,0,0,0-6.3,3.37A6,6,0,0,0,424.86,236.91Z"/><path d="M532.61,245.45H492.56V242.2h40.05Zm-3.65,22-31.45-.09V256.81h26.55V253.2h-26.4v-3.14h29.9V260H501v4.25l28,.11Zm-2.15-28.79h-28.4V224.81h3.5v3.64h21.4v-3.64h3.5Zm-24.9-7v3.8h21.4v-3.8Z"/><path d="M543.41,247.66v-12.6h24.9V230h-24.9V226.7h28.4v11.61h-24.9v6.1h24.9v3.25H559.46v11.25H578v3.25h-40.6v-3.25H556V247.66Z"/><path d="M622.06,261.45H583.31V258.2h30V230h-24.9V226.7h28.4v31.5h5.25Z"/></svg>