<svg id="레이어_1" data-name="레이어 1" xmlns="http://www.w3.org/2000/svg" viewBox="0 0 592.5 117.62"><defs><style>.cls-1{fill:none;stroke:#dcdddd;stroke-linecap:round;stroke-miterlimit:10;stroke-width:3px;}.cls-2{fill:#dcdddd;}.cls-3{fill:#bfc0c0;}.cls-4{fill:#e9473f;}.cls-5{fill:#3e3a39;}</style></defs><path class="cls-1" d="M557.37,87.17s29.72,5.3,31.43-25.46"/><path class="cls-2" d="M548.46,0a44,44,0,0,0,0,88.07l.75,0a44,44,0,0,0-.75-88Z"/><path class="cls-3" d="M584.38,44a35.92,35.92,0,1,0-53.54,31.31c6.71.11,14,2,18.62-.7,7.28-4.16,14.95-2,22.13-3.12A35.86,35.86,0,0,0,584.38,44Z"/><rect class="cls-3" x="568.66" y="78.8" width="19.41" height="6.6" rx="3.3" transform="translate(72.23 373.78) rotate(-38.03)"/><path class="cls-4" d="M571.59,71.52c-7.18,1.08-14.85-1-22.13,3.12a11.3,11.3,0,0,1-4.37,1.3,29.64,29.64,0,0,1-5.16,0c-1.86-.12-3.7-.31-5.55-.46-1.18-.09-2.36-.16-3.54-.18H531a3.37,3.37,0,0,0-1.56.52c-.56.36-1.09.74-1.66,1.08a10.59,10.59,0,0,1-3.4,1.68,7,7,0,0,1-2.19,0,4,4,0,0,1-1.84-.65,44,44,0,0,1-15.1-25.34A147.9,147.9,0,0,0,468,46.08c-10.06-.58-20.15-.44-30.21,0-65.5,2.73-131.19,15.57-196.15,6.78C191.08,46,140.48,37.48,89.23,37.9c-16.06.13-52.54,4.26-70.78,19a32.84,32.84,0,0,0-6.59,7C3.07,78.52,8.07,96.52,22.07,106.52c22.47,15,50.79,12,75.93,7,24.94-5,50.25-9.15,75.77-7.56s49.94,10.59,75.64,10.77c2.92,0,5.84,0,8.76-.12,5.85-.19,11.68-.54,17.49-1.09,33.15-3.15,65.76-10.48,99-12.83a402.08,402.08,0,0,1,108.25,7c9.92,2,20.1,4.4,30.12,4.41,6.48,0,16.33-.78,22.58-2.31a57.46,57.46,0,0,0,16.74-6.91c5.69-3.53,10.72-8.52,13-14.82,1.12-3.12,1.31-6.37,1.71-9.63a12.68,12.68,0,0,1,4.6-9Z"/><path class="cls-5" d="M15.41,62.86l.41,5.08-6.24.51L5.14,13.73l-4.67.38L0,8.28,10.91,7.4,12.82,31Q17.2,24,26,23.27a18.61,18.61,0,0,1,10.47,2,18.12,18.12,0,0,1,7.31,7.41A29.71,29.71,0,0,1,47.13,44.7q.82,10-3.88,16.24t-13.6,7a18.24,18.24,0,0,1-8-1A16.65,16.65,0,0,1,15.41,62.86ZM14.15,47.37q.6,7.34,4.61,11.37A12.38,12.38,0,0,0,29,62.26a11.78,11.78,0,0,0,9.26-5.11q3.2-4.62,2.6-11.95-.64-8-4.57-12.37a11.45,11.45,0,0,0-10-3.88,12,12,0,0,0-9.53,5.47Q13.51,39.38,14.15,47.37Z"/><path class="cls-5" d="M86.45,61.92l2-35.87,6.26.36L92.37,68.12,73.27,67Q65.43,66.58,61.45,63T57.9,51.76l1.56-27.37,6.26.36L64.21,51.28a13.13,13.13,0,0,0,.61,5.43,5.73,5.73,0,0,0,3.12,3.19,19.15,19.15,0,0,0,6.83,1.36Z"/><path class="cls-5" d="M127.53,62.27a11.8,11.8,0,0,0,7.58-3.35,13.31,13.31,0,0,0,3.8-7.76l6.08-.47a20.2,20.2,0,0,1-5.43,12.16A17.43,17.43,0,0,1,128,68.1a20.26,20.26,0,0,1-10.79-1.89A18,18,0,0,1,109.64,59a26.83,26.83,0,0,1-3.38-11.68,27.67,27.67,0,0,1,1.46-12.1A17.79,17.79,0,0,1,113.87,27,19.38,19.38,0,0,1,124,23.48a18.13,18.13,0,0,1,12.85,3.58,19.88,19.88,0,0,1,7.2,11.8l-6.08.47a13,13,0,0,0-4.92-7.7,12.4,12.4,0,0,0-8.6-2.31A11.86,11.86,0,0,0,115,34.49q-3.21,4.68-2.53,12.34t4.81,11.74A12.21,12.21,0,0,0,127.53,62.27Z"/><path class="cls-5" d="M166.33,57l-.51,9.43-6.26-.35,3.31-60.65,6.26.34L166.8,48.49l23.49-22.57,7.51.41L179.5,44.16l17.35,24-7.92-.43-14-19.09Z"/><path class="cls-5" d="M205.89,45.82a27.6,27.6,0,0,1,2.39-12,17.82,17.82,0,0,1,6.78-7.72,19.14,19.14,0,0,1,10.32-2.7,17.46,17.46,0,0,1,9.86,2.76,17.75,17.75,0,0,1,6.42,7.91,30,30,0,0,1,2.25,12.16V47l-31.84,0q.41,7.11,4.17,11.29a12.45,12.45,0,0,0,9.69,4.19q5.34,0,8.48-2.67a10.91,10.91,0,0,0,3.64-7.52h5.85q-.84,7.7-5.48,11.86t-12.5,4.16a20.18,20.18,0,0,1-10.61-2.72,18.08,18.08,0,0,1-7-7.78A26.8,26.8,0,0,1,205.89,45.82ZM225.38,29.3a11.68,11.68,0,0,0-8.74,3,12.83,12.83,0,0,0-3.81,8.77l24.57,0a12.41,12.41,0,0,0-3.59-8.44A12.14,12.14,0,0,0,225.38,29.3Z"/><path class="cls-5" d="M286.86,60.68l6.85-.34.29,5.84-8,.4c-5.24.25-9.29-.56-12.17-2.46s-4.46-5.59-4.74-11.1l-1-19.94-13.61.67-.28-5.84,13.6-.68-.64-13,6.25-.3.65,13,17.78-.87.28,5.84-17.77.88.94,19.11a14.52,14.52,0,0,0,1.2,5.71A5.24,5.24,0,0,0,280,60.22,23.13,23.13,0,0,0,286.86,60.68Z"/><path class="cls-5" d="M344.18,67.66l-37.26-1,.17-5.84,17.12.48,1.28-45.69L312.33,28.65l-4-3.79L325.7,7.79,332,8l-1.5,53.45,13.87.39Z"/><path class="cls-5" d="M377.35,28.81a20.92,20.92,0,0,1,10.29,2,18,18,0,0,1,7.23,6.32,18.72,18.72,0,0,1,2.95,9.61,22.63,22.63,0,0,1-2,10.8,18.23,18.23,0,0,1-6.51,7.61,19.25,19.25,0,0,1-10,3.09,20.38,20.38,0,0,1-10.17-2A17.49,17.49,0,0,1,362,59.87a19.19,19.19,0,0,1-2.91-9.65l5.43-.25a12.22,12.22,0,0,0,4.35,9.22A14.15,14.15,0,0,0,379,62.36a12.61,12.61,0,0,0,6.8-2.19,12.85,12.85,0,0,0,4.4-5.47,17.38,17.38,0,0,0,1.31-7.8,12.29,12.29,0,0,0-4.09-9,13.35,13.35,0,0,0-9.68-3.24,12.46,12.46,0,0,0-7.25,2.5,11.07,11.07,0,0,0-4.23,6.13l-6.85.32L357.86,8.7l34.89-1.58.29,6.26L364,14.7l.9,19.7a17.88,17.88,0,0,1,5.63-4A17.19,17.19,0,0,1,377.35,28.81Z"/><path class="cls-5" d="M406.91,49.39a16.71,16.71,0,0,1,2.95-9.22,17.16,17.16,0,0,1,7.44-6A14.72,14.72,0,0,1,412,28.71a14.32,14.32,0,0,1-1.7-7.54,14.1,14.1,0,0,1,2.57-7.9,15.75,15.75,0,0,1,6.49-5.21,21,21,0,0,1,9.34-1.64,20.31,20.31,0,0,1,9.12,2.32,15.66,15.66,0,0,1,6.07,5.69,14.26,14.26,0,0,1,2,8.05,14.07,14.07,0,0,1-2.22,7.32,14.86,14.86,0,0,1-5.57,5.12,17.14,17.14,0,0,1,7,6.47,16.92,16.92,0,0,1,2.31,9.49,16.33,16.33,0,0,1-2.91,9,17.67,17.67,0,0,1-7.35,6,25.72,25.72,0,0,1-21-.73,17.61,17.61,0,0,1-6.92-6.51A16.58,16.58,0,0,1,406.91,49.39Zm20.7-11.24a15.11,15.11,0,0,0-10.22,3,10.8,10.8,0,0,0-4.22,8.47,10.68,10.68,0,0,0,3.63,8.65,15,15,0,0,0,10,3.69A14.85,14.85,0,0,0,437,59a10.77,10.77,0,0,0,4.18-8.38,10.86,10.86,0,0,0-3.59-8.74A15,15,0,0,0,427.61,38.15Zm-11-16.77a9.35,9.35,0,0,0,3,7.47A12.27,12.27,0,0,0,427.83,32a11.94,11.94,0,0,0,8.32-2.55,9.34,9.34,0,0,0,3.47-7.24,8.52,8.52,0,0,0-3-7,12.43,12.43,0,0,0-8.13-3,12.69,12.69,0,0,0-8.44,2.38A8.47,8.47,0,0,0,416.57,21.38Z"/><path class="cls-5" d="M467.55,61.18l29.82-1,.2,6.26L457.15,67.8,457,63.29q6.93-7.76,12.22-13.28t9-9.7A59.67,59.67,0,0,0,484,32.72a17.28,17.28,0,0,0,2.62-6.94,12.05,12.05,0,0,0-.77-7,10.43,10.43,0,0,0-4.21-4.71A11.08,11.08,0,0,0,475,12.7,11.6,11.6,0,0,0,466.86,16a10.49,10.49,0,0,0-2.79,8l-6.26.21a17.62,17.62,0,0,1,1.92-9,15.91,15.91,0,0,1,6-6.26,20.27,20.27,0,0,1,19.48-.06,16.57,16.57,0,0,1,6.55,7.27A17.86,17.86,0,0,1,493,26.65a22.87,22.87,0,0,1-2.68,7.41,58.44,58.44,0,0,1-5.22,7.82q-3.09,3.94-6.44,7.61t-6.3,6.69Q469.41,59.19,467.55,61.18Z"/></svg>