<svg id="레이어_1" data-name="레이어 1" xmlns="http://www.w3.org/2000/svg" viewBox="0 0 150 150"><defs><style>.cls-1{fill:#e0e3eb;}.cls-2{fill:#f66;}.cls-3{fill:none;stroke:#e0e3eb;stroke-linecap:round;stroke-miterlimit:10;}.cls-4{fill:#bb4e00;}.cls-5{fill:#eceef3;}</style></defs><path class="cls-1" d="M149.29,34.2v110a5.12,5.12,0,0,1-5.12,5.12H5.83a5.12,5.12,0,0,1-5.12-5.12V43.32C2.53,40.89,5,38.48,8,37.67c7.54-2,15.77,3.51,22.12,6.8C33.83,46.39,37.87,48,42,47.72A25.05,25.05,0,0,0,50,45.41c3.72-1.59,7.48-3.41,11.55-3.91,4.4-.53,8.64.72,12.78,2.07C80.1,45.45,86,47.1,91.91,44.84c5.14-1.93,9.59-5.64,15.1-6.62,7.08-1.27,13.91,3.23,20.7,4.36C136.45,44,142.11,38,149.29,34.2Z"/><path class="cls-2" d="M149.29,34.2V5.83A5.12,5.12,0,0,0,144.17.71H5.83A5.12,5.12,0,0,0,.71,5.83V43.32C2.53,40.89,5,38.48,8,37.67c7.54-2,15.77,3.51,22.12,6.8C33.83,46.39,37.87,48,42,47.72A25.05,25.05,0,0,0,50,45.41c3.72-1.59,7.48-3.41,11.55-3.91,4.4-.53,8.64.72,12.78,2.07C80.1,45.45,86,47.1,91.91,44.84c5.14-1.93,9.59-5.64,15.1-6.62,7.08-1.27,13.91,3.23,20.7,4.36C136.45,44,142.11,38,149.29,34.2Z"/><path class="cls-3" d="M141.74.71c0,16-29.88,29-66.74,29S8.26,16.74,8.26.71"/><rect class="cls-4" x="63.39" y="26.83" width="23.22" height="5.8" rx="2.12"/><rect class="cls-5" x="128.39" y="45.4" width="16.25" height="98.66" rx="2.44"/></svg>