<svg id="레이어_1" data-name="레이어 1" xmlns="http://www.w3.org/2000/svg" viewBox="0 0 640 320"><defs><style>.cls-1{fill:#dcdddd;}.cls-2{fill:#e9473f;}.cls-3{fill:#bfc0c0;}.cls-4{fill:#3e3a39;}</style></defs><path class="cls-1" d="M107.06,175.42c-22-11.2-42.39-18-53.27-18.37-4.14-.13-6.9.67-7.84,2.51a2.14,2.14,0,0,0-.1.22h0L1.35,247.06h0C-1.49,253.94,20.19,271.68,50.2,287s57.11,22.41,61,16.07h0l19.39-38,25.1-49.25h0a.88.88,0,0,0,.12-.21C159.22,208.85,137.4,190.89,107.06,175.42Z"/><path class="cls-2" d="M24.57,201.5l-.11.22.12-.21Z"/><path class="cls-2" d="M134.42,257.49a2.14,2.14,0,0,1-.1.22l.11-.21Z"/><path class="cls-2" d="M73.21,241.85c-30.34-15.46-52.16-33.43-48.75-40.13l-14,27.46h0a1.32,1.32,0,0,0-.12.2c-3.42,6.71,18.4,24.67,48.74,40.13s57.7,22.57,61.11,15.87l.1-.22h0l14-27.46C130.9,264.41,103.54,257.31,73.21,241.85Z"/><path class="cls-3" d="M77.37,165.45c-12.85-4.16-22.15-5-23.93-1.53-1,1.92.47,4.93,3.8,8.58,6.15,6.74,18.74,15.66,34.39,24C82.75,189.08,79.08,177.31,77.37,165.45Z"/><path class="cls-3" d="M129.32,203.34c-3.25.27-6.39,1.2-9.62,1.54a37.17,37.17,0,0,1-12.76-.94c12.65,5.59,23.93,9.15,31.48,10.05,5.07.61,8.46,0,9.46-1.94.78-1.54,0-3.77-2-6.47l-.58-.19A41.81,41.81,0,0,0,129.32,203.34Z"/><path class="cls-2" d="M638.09,180c-3-23.83-11.7-46.87-16.27-70.46-3-15.31-6.57-30.86-16.65-43.23-11.54-14.16-27.81-23.77-43.87-31.94C506.19,6.3,436,12.1,378.11,27.54c-18.87,5-37.47,10.82-57,12.72-26.82,2.61-53.75-1.9-80.38-6s-53.81-7.79-80.42-3.56C133.4,35,107.81,47.23,94.72,72.05c0,.08-.08.16-.13.24-6.88,13.18-10.75,27.91-16,41.88l-.06-.06a.24.24,0,0,1,0,.12c-3.71,9.82-8.1,19.26-14.72,27.5a91.3,91.3,0,0,0-10.05,15.32,61.7,61.7,0,0,1,13.08,2.26c1.46,10.16,5.66,20.68,12.49,28.36,6.37,7.17,16.35,11.16,24.88,15.06,5.05,2.31,10.48,2.43,16,2,4.19-.35,8.38-1.46,12.57-1.44a42.36,42.36,0,0,1,12.51,2.12l.58.19a23.93,23.93,0,0,1,9.88,6.37,4.42,4.42,0,0,1,.06,3.6.88.88,0,0,1-.12.21h0L130.6,265c10.94,2.07,22.93,1.17,34.24,1,44-.78,86.84,11.64,130.92,11.74,24.71,0,49.68-3.09,73-11.5,21.44-7.72,44.24-14.77,67-17.75,42.91-5.62,86.17,6.07,129.44,6,21.61,0,45.15-4,59.62-20.07C637.75,220.08,640.52,199.09,638.09,180Z"/><path class="cls-4" d="M201,102.52l-66.4,8.14-.66-5.46,30.46-3.73L163,90.39l5.87-.72,1.36,11.08,30.05-3.69Zm-61.08-5.47-3.18-4.46,23.73-19.1-1-7.8,5.88-.72.92,7.55,28.09,13-2,5.11L164.15,77.55Zm6.13,31.2q-.81-6.63,5.05-10.93t17.53-5.72q11.67-1.42,18.39,1.32t7.54,9.39q.81,6.63-5,11.05T172,139.21q-11.67,1.44-18.41-1.45T146,128.25Zm5.87-.72c.34,2.74,2.19,4.65,5.56,5.71s8,1.24,13.86.52,10.32-2,13.33-3.85,4.35-4.14,4-6.88-2.17-4.47-5.53-5.5-8-1.2-13.86-.48-10.32,2-13.34,3.81S151.55,124.9,151.87,127.53Z"/><path class="cls-4" d="M267.65,106.52l-5.9-.45.93-12.31-19-1.44a15.79,15.79,0,0,1-6.5,5.19,18.16,18.16,0,0,1-8.84,1.37,18.6,18.6,0,0,1-9.14-3A16.58,16.58,0,0,1,213.35,89a18.76,18.76,0,0,1-1.57-9.54,17.86,17.86,0,0,1,3-8.89,16.19,16.19,0,0,1,6.83-5.67,19.27,19.27,0,0,1,9.49-1.53,18.72,18.72,0,0,1,8.82,2.79,15.46,15.46,0,0,1,5.68,6.28l18.63,1.41.53-7-5.48-.41.41-5.49,11.39.87ZM217.68,80a12.49,12.49,0,0,0,2.65,9.23,12.19,12.19,0,0,0,17.12,1.25,12.67,12.67,0,0,0,4-8.77,12,12,0,0,0-2.59-8.85,11.28,11.28,0,0,0-8.22-4,11.59,11.59,0,0,0-13,11.15Zm2,39q.51-6.82,7.08-10.06t18.2-2.36q11.64.81,17.64,5t5.48,11.1q-.53,6.83-7.08,10.06t-18.2,2.35q-11.64-.87-17.64-5.06T219.73,119Zm5.73.44q-.32,4.22,4.32,6.85t13.48,3.31q8.87.68,13.84-1.24c3.32-1.27,5.08-3.32,5.29-6.13s-1.22-5.09-4.31-6.86-7.59-2.86-13.49-3.31-10.51,0-13.83,1.25S225.67,116.63,225.46,119.44Zm21.9-37.27a22.4,22.4,0,0,1-.31,2.48A13.75,13.75,0,0,1,246.4,87l16.7,1.27.68-8.94-16.53-1.25c.06.63.11,1.28.15,2A16.84,16.84,0,0,1,247.36,82.17Z"/><path class="cls-4" d="M289.32,118.91l-4.19-3.57,17.48-20.55-1.09-10.85-16.91,1.7-.56-5.47,39.8-4,.55,5.47-17,1.72,1.14,11.35,21.26,16.14-3.39,4.33L305.73,99.58ZM301.75,147l-2.42-24,5.89-.59,1.87,18.51,44.67-4.5.56,5.46Zm33.82-73.44-5.47.55-.51-5L341,67.9l5.58,55.36-5.89.59Z"/><path class="cls-4" d="M408.48,120.26l-53.91-3.81L355,111l53.82,3.8L412,67.61l-5.57-.39.39-5.48,11.64.82-5.34,75.58-5.91-.42ZM362.62,82.94a15.1,15.1,0,0,1,3.09-8.26A18.64,18.64,0,0,1,372.8,69,18.44,18.44,0,0,1,382,67.36a18.72,18.72,0,0,1,8.8,3.21A19.77,19.77,0,0,1,397,77.19a14.47,14.47,0,0,1,1.91,8.32,14.81,14.81,0,0,1-3.07,8.09,18.46,18.46,0,0,1-7,5.6,18.14,18.14,0,0,1-9.14,1.65,18.76,18.76,0,0,1-8.91-2.92,18.31,18.31,0,0,1-6.23-6.55A14.81,14.81,0,0,1,362.62,82.94Zm5.91.42a9.67,9.67,0,0,0,1.3,5.6,12.33,12.33,0,0,0,4.22,4.37,12.91,12.91,0,0,0,6,2,12.57,12.57,0,0,0,6.18-1.09A12.12,12.12,0,0,0,391,90.45a9.89,9.89,0,0,0,2-5.36,10.39,10.39,0,0,0-1.24-5.81,12.51,12.51,0,0,0-10.1-6.44,12.8,12.8,0,0,0-11,4.94A10.14,10.14,0,0,0,368.53,83.36Z"/><path class="cls-4" d="M435.75,191.4l-67.65,3.36-.27-5.49,67.65-3.36Zm-4.32,37.47-53.13,2.46-.89-17.82,44.85-2.22-.3-6.08-44.6,2.21-.26-5.32,50.51-2.51.83,16.72-44.85,2.23.35,7.18,47.22-2.18Zm-6.05-48.47-48,2.38-1.16-23.4,5.91-.29.31,6.17,36.15-1.8-.31-6.16,5.91-.3Zm-42.65-9.82.32,6.41,36.15-1.79-.32-6.42Z"/><path class="cls-4" d="M451,187.2l1.23-21.28,42,2.43.49-8.61-42-2.43.32-5.48,48,2.76-1.13,19.59-42-2.43-.6,10.3,42.05,2.43-.32,5.48-20.85-1.2-1.1,19,31.32,1.8-.31,5.49-68.55-4,.31-5.49,31.32,1.81,1.1-19Z"/><path class="cls-4" d="M578.94,220.14H513.4v-5.5h50.74V166.86H522v-5.5h48v53.28h8.88Z"/></svg>