<svg id="레이어_1" data-name="레이어 1" xmlns="http://www.w3.org/2000/svg" viewBox="0 0 300 100"><defs><style>.cls-1{fill:#dcdddd;}.cls-2{fill:#e9473f;}.cls-3{fill:#bfc0c0;}.cls-4{fill:#949495;}.cls-5{fill:#ffc02b;}.cls-6{fill:#62cf19;}.cls-7{fill:#1fc2ff;}.cls-8{fill:#7723cf;}</style></defs><path class="cls-1" d="M55.22,31.26c0-3.31-12.12-6-27.08-6S1.06,28,1.06,31.26v.1h0v43h0c.26,3.26,12.28,5.88,27.08,5.88S55,77.66,55.21,74.4h0v-43h0A.34.34,0,0,0,55.22,31.26Z"/><path class="cls-2" d="M1.06,51.94v0Z"/><path class="cls-2" d="M55.21,51.94a.34.34,0,0,1,0,.1v-.1Z"/><path class="cls-2" d="M28.14,58c-15,0-27.08-2.67-27.08-6V65.58h0v.11c0,3.3,12.12,6,27.08,6s27.08-2.68,27.08-6a.41.41,0,0,0,0-.11h0V52C55.22,55.35,43.1,58,28.14,58Z"/><path class="cls-3" d="M48.11,34.11c2.1-.77,3.31-1.67,3.31-2.64,0-2.84-10.42-5.14-23.28-5.14S4.86,28.63,4.86,31.47c0,1,1.17,1.84,3.2,2.6,4.07-1.49,11.49-2.5,20-2.5S44.06,32.59,48.11,34.11Z"/><path class="cls-2" d="M48.11,34.11c-4-1.52-11.53-2.54-20.09-2.54s-15.89,1-20,2.5c4,1.52,11.52,2.54,20.08,2.54S44,35.61,48.11,34.11Z"/><path class="cls-3" d="M55.21,32.42h0a1,1,0,0,1-1-1.08c.06-3.46-4.08-4.94-8.34-6.16l-.22-.07C35.5,22.21,11,17,2,31.81a1.05,1.05,0,1,1-1.8-1.1c9.81-16,35.46-10.67,46-7.63l.22.06c3.73,1.07,10,2.87,9.86,8.24A1.06,1.06,0,0,1,55.21,32.42Z"/><rect class="cls-4" x="34.82" y="20.78" width="10.45" height="3.51" rx="1.63" transform="translate(5.21 -7.44) rotate(11.34)"/><path class="cls-1" d="M116.15,31.26c0-3.31-12.12-6-27.08-6S62,28,62,31.26a.34.34,0,0,0,0,.1h0v43h0c.25,3.26,12.27,5.88,27.07,5.88s26.82-2.62,27.08-5.88h0v-43h0Z"/><path class="cls-2" d="M62,51.94V52a.34.34,0,0,1,0-.1Z"/><path class="cls-2" d="M116.15,51.94v0Z"/><path class="cls-5" d="M89.07,58C74.11,58,62,55.35,62,52V65.58h0a.41.41,0,0,0,0,.11c0,3.3,12.12,6,27.08,6s27.08-2.68,27.08-6v-.11h0V52C116.15,55.35,104,58,89.07,58Z"/><path class="cls-3" d="M109,34.11c2.1-.77,3.31-1.67,3.31-2.64,0-2.84-10.42-5.14-23.28-5.14s-23.28,2.3-23.28,5.14c0,1,1.17,1.84,3.2,2.6,4.07-1.49,11.49-2.5,20-2.5S105,32.59,109,34.11Z"/><path class="cls-5" d="M109,34.11C105,32.59,97.51,31.57,89,31.57s-15.9,1-20,2.5c4,1.52,11.52,2.54,20.08,2.54S105,35.61,109,34.11Z"/><path class="cls-3" d="M116.15,32.42h0a1.05,1.05,0,0,1-1-1.08c.06-3.46-4.08-4.94-8.33-6.16l-.23-.07C96.43,22.21,72,17,62.89,31.81a1.05,1.05,0,0,1-1.8-1.1c9.82-16,35.46-10.67,46-7.63l.22.06c3.73,1.07,10,2.87,9.86,8.24A1.05,1.05,0,0,1,116.15,32.42Z"/><rect class="cls-4" x="95.75" y="20.78" width="10.45" height="3.51" rx="1.63" transform="translate(6.4 -19.42) rotate(11.34)"/><path class="cls-1" d="M177.08,31.26c0-3.31-12.12-6-27.08-6s-27.08,2.67-27.08,6a.34.34,0,0,0,0,.1h0v43h0c.25,3.26,12.27,5.88,27.07,5.88s26.82-2.62,27.08-5.88h0v-43h0Z"/><path class="cls-2" d="M122.92,51.94V52a.34.34,0,0,1,0-.1Z"/><path class="cls-2" d="M177.08,51.94v0Z"/><path class="cls-6" d="M150,58c-14.95,0-27.08-2.67-27.08-6V65.58h0a.41.41,0,0,0,0,.11c0,3.3,12.13,6,27.08,6s27.08-2.68,27.08-6v-.11h0V52C177.08,55.35,165,58,150,58Z"/><path class="cls-3" d="M170,34.11c2.1-.77,3.31-1.67,3.31-2.64,0-2.84-10.42-5.14-23.28-5.14s-23.28,2.3-23.28,5.14c0,1,1.17,1.84,3.2,2.6,4.07-1.49,11.49-2.5,20-2.5S165.92,32.59,170,34.11Z"/><path class="cls-6" d="M170,34.11c-4.05-1.52-11.52-2.54-20.08-2.54s-15.9,1-20,2.5c4.05,1.52,11.52,2.54,20.08,2.54S165.9,35.61,170,34.11Z"/><path class="cls-3" d="M177.08,32.42h0a1.05,1.05,0,0,1-1-1.08c.07-3.46-4.08-4.94-8.33-6.16l-.23-.07c-10.1-2.9-34.58-8.07-43.64,6.7a1.05,1.05,0,0,1-1.8-1.1c9.82-16,35.46-10.67,46-7.63l.22.06c3.73,1.07,10,2.87,9.87,8.24A1.07,1.07,0,0,1,177.08,32.42Z"/><rect class="cls-4" x="156.69" y="20.78" width="10.45" height="3.51" rx="1.63" transform="translate(7.59 -31.4) rotate(11.34)"/><path class="cls-1" d="M238,31.26c0-3.31-12.13-6-27.09-6s-27.08,2.67-27.08,6c0,0,0,.07,0,.1h0v43h0c.25,3.26,12.28,5.88,27.07,5.88S237.76,77.66,238,74.4h0v-43h0S238,31.29,238,31.26Z"/><path class="cls-2" d="M183.85,51.94V52s0-.07,0-.1Z"/><path class="cls-2" d="M238,51.94s0,.07,0,.1v-.1Z"/><path class="cls-7" d="M210.93,58c-15,0-27.08-2.67-27.08-6V65.58h0s0,.07,0,.11c0,3.3,12.13,6,27.08,6S238,69,238,65.69c0,0,0-.07,0-.11h0V52C238,55.35,225.89,58,210.93,58Z"/><path class="cls-3" d="M230.9,34.11c2.1-.77,3.31-1.67,3.31-2.64,0-2.84-10.42-5.14-23.28-5.14s-23.28,2.3-23.28,5.14c0,1,1.17,1.84,3.2,2.6,4.07-1.49,11.49-2.5,20-2.5S226.86,32.59,230.9,34.11Z"/><path class="cls-7" d="M230.9,34.11c-4-1.52-11.52-2.54-20.08-2.54s-15.9,1-20,2.5c4.05,1.52,11.53,2.54,20.08,2.54S226.83,35.61,230.9,34.11Z"/><path class="cls-3" d="M238,32.42h0a1.05,1.05,0,0,1-1-1.08c.07-3.46-4.08-4.94-8.33-6.16l-.22-.07c-10.11-2.9-34.59-8.07-43.64,6.7a1.06,1.06,0,0,1-1.81-1.1c9.82-16,35.46-10.67,46-7.63l.22.06c3.73,1.07,10,2.87,9.87,8.24A1.06,1.06,0,0,1,238,32.42Z"/><rect class="cls-4" x="217.62" y="20.78" width="10.45" height="3.51" rx="1.63" transform="translate(8.78 -43.38) rotate(11.34)"/><path class="cls-1" d="M299,31.26c0-3.31-12.13-6-27.08-6s-27.08,2.67-27.08,6v.1h0v43h0c.26,3.26,12.28,5.88,27.08,5.88s26.82-2.62,27.07-5.88h0v-43h0S299,31.29,299,31.26Z"/><path class="cls-2" d="M244.79,51.94v0Z"/><path class="cls-2" d="M298.94,51.94s0,.07,0,.1v-.1Z"/><path class="cls-8" d="M271.87,58c-15,0-27.08-2.67-27.08-6V65.58h0v.11c0,3.3,12.12,6,27.08,6S299,69,299,65.69c0,0,0-.07,0-.11h0V52C299,55.35,286.82,58,271.87,58Z"/><path class="cls-3" d="M291.83,34.11c2.11-.77,3.32-1.67,3.32-2.64,0-2.84-10.43-5.14-23.28-5.14s-23.28,2.3-23.28,5.14c0,1,1.16,1.84,3.19,2.6,4.08-1.49,11.49-2.5,20-2.5S287.79,32.59,291.83,34.11Z"/><path class="cls-8" d="M291.83,34.11c-4-1.52-11.52-2.54-20.08-2.54s-15.89,1-20,2.5c4.05,1.52,11.53,2.54,20.09,2.54S287.76,35.61,291.83,34.11Z"/><path class="cls-3" d="M298.94,32.42h0a1.06,1.06,0,0,1-1-1.08c.07-3.46-4.08-4.94-8.33-6.16l-.22-.07c-10.11-2.9-34.58-8.07-43.64,6.7a1.06,1.06,0,0,1-1.81-1.1c9.82-16,35.46-10.67,46-7.63l.22.06c3.73,1.07,10,2.87,9.87,8.24A1.06,1.06,0,0,1,298.94,32.42Z"/><rect class="cls-4" x="278.55" y="20.78" width="10.45" height="3.51" rx="1.63" transform="translate(9.97 -55.36) rotate(11.34)"/></svg>