<svg id="레이어_1" data-name="레이어 1" xmlns="http://www.w3.org/2000/svg" viewBox="0 0 100 100"><defs><style>.cls-1{fill:#dcdddd;}.cls-2{fill:#e9473f;}.cls-3{fill:#bfc0c0;}.cls-4{fill:#949495;}</style></defs><path class="cls-1" d="M94.67,19.09c0-5.45-20-9.87-44.67-9.87S5.34,13.64,5.34,19.09a1,1,0,0,0,0,.17h0v71h0C5.76,95.62,25.6,99.94,50,99.94s44.24-4.32,44.66-9.69h0v-71h0A1,1,0,0,0,94.67,19.09Z"/><path class="cls-2" d="M5.34,53.19v.18a1.09,1.09,0,0,1,0-.18Z"/><path class="cls-2" d="M94.66,53.19a1.09,1.09,0,0,1,0,.18v-.18Z"/><path class="cls-2" d="M50,63.24c-24.67,0-44.66-4.42-44.66-9.87V75.7h0a1.09,1.09,0,0,0,0,.18c0,5.45,20,9.86,44.66,9.86s44.67-4.41,44.67-9.86a1.09,1.09,0,0,0,0-.18h0V53.37C94.67,58.82,74.67,63.24,50,63.24Z"/><path class="cls-3" d="M82.94,23.8c3.47-1.28,5.46-2.77,5.46-4.37C88.4,14.75,71.21,11,50,11s-38.39,3.8-38.39,8.48c0,1.57,1.92,3,5.27,4.3,6.72-2.47,19-4.12,32.94-4.12S76.27,21.29,82.94,23.8Z"/><path class="cls-2" d="M82.94,23.8c-6.67-2.51-19-4.19-33.12-4.19S23.6,21.26,16.88,23.73c6.67,2.5,19,4.19,33.12,4.19S76.22,26.27,82.94,23.8Z"/><path class="cls-3" d="M94.66,21h0a1.74,1.74,0,0,1-1.71-1.77c.11-5.72-6.73-8.16-13.75-10.17L78.81,9C62.14,4.16,21.76-4.36,6.82,20a1.74,1.74,0,0,1-3-1.83C20-8.23,62.34.58,79.77,5.6l.37.1c6.15,1.77,16.44,4.72,16.27,13.59A1.75,1.75,0,0,1,94.66,21Z"/><rect class="cls-4" x="61.03" y="1.8" width="17.24" height="5.79" rx="1.63" transform="translate(2.28 -13.6) rotate(11.34)"/></svg>