<svg id="레이어_1" data-name="레이어 1" xmlns="http://www.w3.org/2000/svg" viewBox="0 0 100 100"><defs><style>.cls-1{fill:#dcdddd;}.cls-2{fill:#e9473f;}.cls-3{fill:#ffc02b;}.cls-4{fill:#bfc0c0;}.cls-5{fill:#949495;}</style></defs><path class="cls-1" d="M94.73,19.05c0-5.46-20-9.88-44.73-9.88S5.28,13.59,5.28,19.05c0,.06,0,.12,0,.17h0V90.29h0C5.71,95.67,25.57,100,50,100s44.3-4.33,44.72-9.71h0V19.22h0S94.73,19.11,94.73,19.05Z"/><path class="cls-2" d="M5.28,53.2v.17c0-.06,0-.11,0-.17Z"/><path class="cls-2" d="M94.72,53.2c0,.06,0,.11,0,.17V53.2Z"/><path class="cls-3" d="M50,63.25c-24.69,0-44.72-4.42-44.72-9.88V75.73h0c0,.06,0,.12,0,.18,0,5.45,20,9.88,44.72,9.88s44.73-4.43,44.73-9.88c0-.06,0-.12,0-.18h0V53.37C94.73,58.83,74.7,63.25,50,63.25Z"/><path class="cls-4" d="M83,23.77c3.47-1.28,5.47-2.78,5.47-4.37,0-4.69-17.21-8.5-38.45-8.5s-38.44,3.81-38.44,8.5c0,1.57,1.93,3,5.28,4.3,6.72-2.48,19-4.13,33-4.13S76.3,21.26,83,23.77Z"/><path class="cls-3" d="M83,23.77c-6.68-2.51-19-4.2-33.16-4.2s-26.26,1.65-33,4.13c6.68,2.51,19,4.19,33.16,4.19S76.26,26.24,83,23.77Z"/><path class="cls-4" d="M94.72,21h0A1.75,1.75,0,0,1,93,19.19C93.08,13.47,86.23,11,79.21,9l-.37-.11C62.15,4.1,21.73-4.43,6.77,20a1.75,1.75,0,0,1-3-1.82C20-8.3,62.35.52,79.81,5.54l.36.11c6.16,1.77,16.46,4.73,16.29,13.61A1.74,1.74,0,0,1,94.72,21Z"/><rect class="cls-5" x="61.04" y="1.74" width="17.26" height="5.8" rx="1.63" transform="translate(2.27 -13.61) rotate(11.34)"/></svg>