<svg id="레이어_1" data-name="레이어 1" xmlns="http://www.w3.org/2000/svg" viewBox="0 0 100 100"><defs><style>.cls-1{fill:#dcdddd;}.cls-2{fill:#e9473f;}.cls-3{fill:#1fc2ff;}.cls-4{fill:#bfc0c0;}.cls-5{fill:#949495;}</style></defs><path class="cls-1" d="M94.53,19.19c0-5.43-19.94-9.84-44.53-9.84S5.48,13.76,5.48,19.19c0,.06,0,.11,0,.17h0V90.11h0c.42,5.36,20.19,9.67,44.51,9.67s44.1-4.31,44.52-9.67h0V19.36h0C94.52,19.3,94.53,19.25,94.53,19.19Z"/><path class="cls-2" d="M5.48,53.18v.18c0-.06,0-.12,0-.18Z"/><path class="cls-2" d="M94.52,53.18c0,.06,0,.12,0,.18v-.18Z"/><path class="cls-3" d="M50,63.19c-24.58,0-44.52-4.4-44.52-9.83V75.62h0s0,.11,0,.17c0,5.43,19.94,9.84,44.52,9.84s44.53-4.41,44.53-9.84c0-.06,0-.12,0-.17h0V53.36C94.53,58.79,74.59,63.19,50,63.19Z"/><path class="cls-4" d="M82.83,23.88c3.46-1.27,5.45-2.76,5.45-4.35,0-4.67-17.14-8.45-38.28-8.45s-38.27,3.78-38.27,8.45c0,1.57,1.92,3,5.26,4.28,6.69-2.46,18.89-4.1,32.83-4.1S76.18,21.38,82.83,23.88Z"/><path class="cls-3" d="M82.83,23.88c-6.65-2.5-18.94-4.17-33-4.17S23.68,21.35,17,23.81C23.64,26.31,35.93,28,50,28S76.14,26.34,82.83,23.88Z"/><path class="cls-4" d="M94.52,21.1h0a1.73,1.73,0,0,1-1.7-1.77c.11-5.7-6.71-8.13-13.7-10.14l-.37-.1C62.1,4.31,21.86-4.18,7,20.1a1.74,1.74,0,0,1-3-1.82C20.14-8,62.3.74,79.67,5.74l.37.11c6.13,1.76,16.38,4.7,16.21,13.55A1.73,1.73,0,0,1,94.52,21.1Z"/><rect class="cls-5" x="60.99" y="1.96" width="17.18" height="5.77" rx="1.63" transform="translate(2.31 -13.59) rotate(11.34)"/></svg>